<mxfile host="app.diagrams.net" modified="2022-10-11T14:49:53.138Z" agent="5.0 (Windows NT 10.0; Win64; x64) AppleWebKit/537.36 (KHTML, like Gecko) Chrome/105.0.0.0 Safari/537.36" etag="W1j49rkS56jx6Ejudxli" version="20.3.6" type="github">
  <diagram id="larL_kCCIwDzY-j3gKDl" name="Page-1">
    <mxGraphModel dx="2793" dy="1921" grid="1" gridSize="10" guides="1" tooltips="1" connect="1" arrows="1" fold="1" page="1" pageScale="1" pageWidth="827" pageHeight="1169" math="0" shadow="0">
      <root>
        <mxCell id="0" />
        <mxCell id="1" parent="0" />
        <mxCell id="IwGqyNI7NNDfl2Wb9tJW-7" style="edgeStyle=orthogonalEdgeStyle;rounded=0;orthogonalLoop=1;jettySize=auto;html=1;entryX=0.5;entryY=0;entryDx=0;entryDy=0;fontSize=16;exitX=0.25;exitY=1;exitDx=0;exitDy=0;" edge="1" parent="1" source="IwGqyNI7NNDfl2Wb9tJW-1" target="IwGqyNI7NNDfl2Wb9tJW-3">
          <mxGeometry relative="1" as="geometry" />
        </mxCell>
        <mxCell id="IwGqyNI7NNDfl2Wb9tJW-25" value="рег. &lt;i&gt;U&lt;/i&gt;, &lt;i&gt;f, распр нагр&lt;/i&gt;" style="edgeLabel;html=1;align=center;verticalAlign=middle;resizable=0;points=[];fontSize=10;" vertex="1" connectable="0" parent="IwGqyNI7NNDfl2Wb9tJW-7">
          <mxGeometry x="0.1655" relative="1" as="geometry">
            <mxPoint as="offset" />
          </mxGeometry>
        </mxCell>
        <mxCell id="IwGqyNI7NNDfl2Wb9tJW-8" style="edgeStyle=orthogonalEdgeStyle;rounded=0;orthogonalLoop=1;jettySize=auto;html=1;entryX=0.5;entryY=0;entryDx=0;entryDy=0;fontSize=16;" edge="1" parent="1" source="IwGqyNI7NNDfl2Wb9tJW-1" target="IwGqyNI7NNDfl2Wb9tJW-5">
          <mxGeometry relative="1" as="geometry" />
        </mxCell>
        <mxCell id="IwGqyNI7NNDfl2Wb9tJW-9" style="edgeStyle=orthogonalEdgeStyle;rounded=0;orthogonalLoop=1;jettySize=auto;html=1;entryX=0.5;entryY=0;entryDx=0;entryDy=0;fontSize=16;exitX=0.75;exitY=1;exitDx=0;exitDy=0;" edge="1" parent="1" source="IwGqyNI7NNDfl2Wb9tJW-1" target="IwGqyNI7NNDfl2Wb9tJW-6">
          <mxGeometry relative="1" as="geometry" />
        </mxCell>
        <mxCell id="IwGqyNI7NNDfl2Wb9tJW-11" style="edgeStyle=orthogonalEdgeStyle;rounded=0;orthogonalLoop=1;jettySize=auto;html=1;entryX=0.5;entryY=0;entryDx=0;entryDy=0;fontSize=16;" edge="1" parent="1" source="IwGqyNI7NNDfl2Wb9tJW-1" target="IwGqyNI7NNDfl2Wb9tJW-10">
          <mxGeometry relative="1" as="geometry" />
        </mxCell>
        <mxCell id="IwGqyNI7NNDfl2Wb9tJW-1" value="АСУ ТП" style="rounded=0;whiteSpace=wrap;html=1;fontSize=16;" vertex="1" parent="1">
          <mxGeometry x="145" y="230" width="170" height="60" as="geometry" />
        </mxCell>
        <mxCell id="IwGqyNI7NNDfl2Wb9tJW-3" value="&lt;font style=&quot;font-size: 17px;&quot;&gt;ДЭС-1,2 (8 ДГУ)&lt;br&gt;около 15 МВт&lt;br&gt;&lt;/font&gt;" style="rounded=0;whiteSpace=wrap;html=1;" vertex="1" parent="1">
          <mxGeometry y="330" width="140" height="50" as="geometry" />
        </mxCell>
        <mxCell id="IwGqyNI7NNDfl2Wb9tJW-5" value="&lt;font style=&quot;font-size: 17px;&quot;&gt;МГЭС-1,2,3 (около 2 МВт)&lt;/font&gt;" style="rounded=0;whiteSpace=wrap;html=1;" vertex="1" parent="1">
          <mxGeometry x="160" y="330" width="140" height="50" as="geometry" />
        </mxCell>
        <mxCell id="IwGqyNI7NNDfl2Wb9tJW-6" value="&lt;font style=&quot;font-size: 17px;&quot;&gt;ВЭС (2,4 МВт)&lt;/font&gt;" style="rounded=0;whiteSpace=wrap;html=1;" vertex="1" parent="1">
          <mxGeometry x="320" y="330" width="140" height="50" as="geometry" />
        </mxCell>
        <mxCell id="IwGqyNI7NNDfl2Wb9tJW-10" value="&lt;span style=&quot;font-size: 17px;&quot;&gt;МП РЗА (управление коммутационными аппаратами)&lt;/span&gt;" style="rounded=0;whiteSpace=wrap;html=1;" vertex="1" parent="1">
          <mxGeometry x="480" y="320" width="200" height="60" as="geometry" />
        </mxCell>
        <mxCell id="IwGqyNI7NNDfl2Wb9tJW-16" style="edgeStyle=orthogonalEdgeStyle;rounded=0;orthogonalLoop=1;jettySize=auto;html=1;entryX=0.5;entryY=0;entryDx=0;entryDy=0;fontSize=10;startArrow=classic;startFill=1;exitX=0.5;exitY=1;exitDx=0;exitDy=0;" edge="1" parent="1" source="IwGqyNI7NNDfl2Wb9tJW-23" target="IwGqyNI7NNDfl2Wb9tJW-1">
          <mxGeometry relative="1" as="geometry" />
        </mxCell>
        <mxCell id="IwGqyNI7NNDfl2Wb9tJW-24" style="edgeStyle=orthogonalEdgeStyle;rounded=0;orthogonalLoop=1;jettySize=auto;html=1;entryX=0.5;entryY=0;entryDx=0;entryDy=0;fontSize=10;startArrow=classic;startFill=1;" edge="1" parent="1" source="IwGqyNI7NNDfl2Wb9tJW-12" target="IwGqyNI7NNDfl2Wb9tJW-23">
          <mxGeometry relative="1" as="geometry" />
        </mxCell>
        <mxCell id="IwGqyNI7NNDfl2Wb9tJW-12" value="A-EDGE" style="rounded=0;whiteSpace=wrap;html=1;fontSize=16;fillColor=#ffe6cc;strokeColor=#d79b00;" vertex="1" parent="1">
          <mxGeometry x="145" y="50" width="170" height="60" as="geometry" />
        </mxCell>
        <mxCell id="IwGqyNI7NNDfl2Wb9tJW-21" style="edgeStyle=orthogonalEdgeStyle;rounded=0;orthogonalLoop=1;jettySize=auto;html=1;entryX=0;entryY=0.5;entryDx=0;entryDy=0;fontSize=10;startArrow=classic;startFill=1;exitX=0.5;exitY=0;exitDx=0;exitDy=0;" edge="1" parent="1" source="IwGqyNI7NNDfl2Wb9tJW-13" target="IwGqyNI7NNDfl2Wb9tJW-1">
          <mxGeometry relative="1" as="geometry" />
        </mxCell>
        <mxCell id="IwGqyNI7NNDfl2Wb9tJW-26" value="Выводить данные по качеству" style="edgeLabel;html=1;align=center;verticalAlign=middle;resizable=0;points=[];fontSize=10;" vertex="1" connectable="0" parent="IwGqyNI7NNDfl2Wb9tJW-21">
          <mxGeometry x="-0.3253" relative="1" as="geometry">
            <mxPoint x="64" as="offset" />
          </mxGeometry>
        </mxCell>
        <mxCell id="IwGqyNI7NNDfl2Wb9tJW-13" value="&lt;span style=&quot;font-size: 10px;&quot;&gt;24 x БРТП 6/0,4 (концентратор ЭКОМ 3000 - АСКУЭ)&lt;/span&gt;" style="rounded=0;whiteSpace=wrap;html=1;fontSize=10;" vertex="1" parent="1">
          <mxGeometry x="-170" y="330" width="140" height="50" as="geometry" />
        </mxCell>
        <mxCell id="IwGqyNI7NNDfl2Wb9tJW-22" value="" style="edgeStyle=orthogonalEdgeStyle;rounded=0;orthogonalLoop=1;jettySize=auto;html=1;fontSize=10;startArrow=classic;startFill=1;" edge="1" parent="1" source="IwGqyNI7NNDfl2Wb9tJW-15" target="IwGqyNI7NNDfl2Wb9tJW-12">
          <mxGeometry relative="1" as="geometry" />
        </mxCell>
        <mxCell id="IwGqyNI7NNDfl2Wb9tJW-15" value="Cloud" style="rounded=0;whiteSpace=wrap;html=1;fontSize=16;fillColor=#ffe6cc;strokeColor=#d79b00;" vertex="1" parent="1">
          <mxGeometry x="145" y="-50" width="170" height="60" as="geometry" />
        </mxCell>
        <mxCell id="IwGqyNI7NNDfl2Wb9tJW-23" value="SCADA" style="rounded=0;whiteSpace=wrap;html=1;fontSize=16;" vertex="1" parent="1">
          <mxGeometry x="145" y="140" width="170" height="60" as="geometry" />
        </mxCell>
      </root>
    </mxGraphModel>
  </diagram>
</mxfile>
